<?xml version="1.0" standalone="no"?>
<!DOCTYPE svg PUBLIC "-//W3C//DTD SVG 20010904//EN"
 "http://www.w3.org/TR/2001/REC-SVG-20010904/DTD/svg10.dtd">
<svg version="1.0" xmlns="http://www.w3.org/2000/svg"
 width="192.000000pt" height="192.000000pt" viewBox="0 0 192.000000 192.000000"
 preserveAspectRatio="xMidYMid meet">

<g transform="translate(0.000000,192.000000) scale(0.100000,-0.100000)"
fill="#000000" stroke="none">
<path d="M0 960 l0 -960 960 0 960 0 0 960 0 960 -960 0 -960 0 0 -960z m480
420 l0 -60 -60 0 -60 0 0 -120 0 -120 -60 0 -60 0 0 120 0 120 60 0 60 0 0 60
0 60 60 0 60 0 0 -60z m1200 -60 l0 -120 -60 0 -60 0 0 60 0 60 -60 0 -60 0 0
60 0 60 120 0 120 0 0 -120z m-360 -300 l0 -60 -120 0 -120 0 0 -120 0 -120
60 0 60 0 0 -180 0 -180 60 0 60 0 0 180 0 180 60 0 60 0 0 -180 0 -180 -60 0
-60 0 0 -60 0 -60 -60 0 -60 0 0 -60 0 -60 -60 0 -60 0 0 240 0 240 -120 0
-120 0 0 -240 0 -240 -60 0 -60 0 0 60 0 60 -60 0 -60 0 0 60 0 60 -60 0 -60
0 0 180 0 180 60 0 60 0 0 -180 0 -180 60 0 60 0 0 180 0 180 60 0 60 0 0 120
0 120 -120 0 -120 0 0 60 0 60 360 0 360 0 0 -60z m-1080 -480 l0 -60 -60 0
-60 0 0 60 0 60 60 0 60 0 0 -60z m1560 0 l0 -60 -60 0 -60 0 0 60 0 60 60 0
60 0 0 -60z"/>
</g>
</svg>
